<?xml version="1.0" encoding="UTF-8"?>
<svg id="Layer_1" data-name="Layer 1" xmlns="http://www.w3.org/2000/svg" viewBox="0 0 1920 3240">
  <rect width="1920" height="3240" style="fill: bisque;"/>
  <path d="m1920,2553.74V756.91c-116.88,44.42-235.54,130.65-453.45,181.95-247.54,58.26-458.64,32.69-684.1,5.39-370.37-44.86-516.01-141.14-708.34-53.87-26.91,12.21-51.53,26.6-74.1,42.4v1620.96h1920Z" style="fill: #eccba0;"/>
  <path d="m1920,3240v-850.05c-21.85,7.91-44.6,14.75-68.31,20.25-54.77,12.7-144.74,33.56-245.09,0-124.49-41.64-133.11-122.93-285.49-261.25-103.49-93.94-244.48-221.93-428.24-220.85-131.11.77-238.28,66.97-255.87,78.11-108.91,68.97-106.66,130.23-204.69,177.76-119.9,58.13-245.51,25.77-282.8,16.16-58.88-15.17-108.48-40.45-149.52-69.17v1109.06h1920Z" style="fill: #deb887;"/>
</svg>