<?xml version="1.0" encoding="UTF-8"?>
<svg id="Layer_1" data-name="Layer 1" xmlns="http://www.w3.org/2000/svg" viewBox="0 0 1920 5400">
  <rect x=".01" width="1919.98" height="5400" style="fill: bisque;"/>
  <path d="m1919.99,806.11c-114.85,47.49-236.01,130.15-449.34,180.37-255.46,60.12-473.32,33.74-706,5.56-382.23-46.3-532.53-145.66-731.01-55.59-11.63,5.28-22.82,10.97-33.63,16.97v1699.64h1919.98V806.11Z" style="fill: #eccba0;"/>
  <path d="m1851.69,2330.06c-54.77,12.7-144.74,33.56-245.09,0-124.49-41.64-133.11-122.93-285.49-261.25-103.49-93.94-244.48-221.93-428.24-220.85-131.11.77-238.28,66.97-255.87,78.11-108.91,68.97-106.66,130.23-204.69,177.76-119.9,58.13-245.51,25.77-282.8,16.16-58.88-15.17-108.48-40.45-149.52-69.17v1006.26h0v1164.26h1920v-1911.53c-21.85,7.91-44.6,14.75-68.31,20.25Z" style="fill: #deb887;"/>
  <path d="m.01,3127.31c114.85,47.49,236.01,130.15,449.34,180.37,255.46,60.12,473.32,33.74,706,5.56,382.23-46.3,532.53-145.66,731.01-55.59,11.63,5.28,22.82,10.97,33.63,16.97v1699.64H.01v-1846.95Z" style="fill: #eccba0;"/>
  <path d="m1920,4335.79c-32.18,37.58-60.67,83.62-110.65,140.87-94.33,108.04-160.3,183.6-253.28,196.09-134.04,18-282.2-100.74-343.15-224.68-49.76-101.19-12.85-147.83-69.45-216.51-91.77-111.36-277.66-96.57-310.47-93.96-219.66,17.48-396.13,180.9-420.76,204.26-33.29,31.56-119.08,118.89-241.02,171.57-21.09,9.11-49.17,19.74-85.79,20.43-31.75.59-60.51-6.48-85.43-16.85v828.31l1919.99-50.9v-958.62Z" style="fill: bisque;"/>
</svg>